<svg width="16" height="16" viewBox="0 0 16 16" fill="none" xmlns="http://www.w3.org/2000/svg">
<path d="M4.47852 13.7371C4.55156 13.8104 4.63834 13.8685 4.73387 13.9081C4.8294 13.9477 4.93181 13.9681 5.03524 13.9681C5.13868 13.9681 5.24109 13.9477 5.33662 13.9081C5.43215 13.8685 5.51893 13.8104 5.59197 13.7371L10.8824 8.44666C10.9408 8.38846 10.987 8.31933 11.0186 8.24323C11.0502 8.16713 11.0664 8.08555 11.0664 8.00316C11.0664 7.92077 11.0502 7.8392 11.0186 7.76309C10.987 7.68699 10.9408 7.61787 10.8824 7.55967L5.59197 2.2692C5.28373 1.96096 4.78676 1.96096 4.47852 2.2692C4.17028 2.57744 4.17028 3.07441 4.47852 3.38265L9.09588 8.00002L4.47223 12.6237C4.17028 12.9319 4.17028 13.4289 4.47852 13.7371Z" fill="white"/>
</svg>
