<svg width="24" height="24" viewBox="0 0 24 24" fill="none" xmlns="http://www.w3.org/2000/svg">
<path fill-rule="evenodd" clip-rule="evenodd" d="M5.29304 5.29289C5.68357 4.90237 6.31673 4.90237 6.70726 5.29289L19.4815 18.0671C19.872 18.4576 19.872 19.0908 19.4815 19.4813C19.0909 19.8718 18.4578 19.8718 18.0672 19.4813L5.29304 6.70711C4.90252 6.31658 4.90252 5.68342 5.29304 5.29289Z" fill="white"/>
<path fill-rule="evenodd" clip-rule="evenodd" d="M5.29289 19.4814C4.90237 19.0908 4.90237 18.4577 5.29289 18.0672L18.0671 5.29296C18.4576 4.90244 19.0908 4.90244 19.4813 5.29296C19.8718 5.68349 19.8718 6.31665 19.4813 6.70718L6.70711 19.4814C6.31658 19.8719 5.68342 19.8719 5.29289 19.4814Z" fill="white"/>
</svg>
