<svg width="45" height="58" viewBox="0 0 45 58" fill="none" xmlns="http://www.w3.org/2000/svg">
<path fill-rule="evenodd" clip-rule="evenodd" d="M22.0569 57.2609L29.2374 42.8884L29.4435 42.8197C38.2159 39.6932 44.0909 31.379 44.0909 22.0454C44.0909 9.87177 34.2191 0 22.0454 0C9.87177 0 0 9.87177 0 22.0454C0 31.379 5.87496 39.6932 14.6473 42.8197L14.8535 42.8884L22.0569 57.2609Z" fill="#252D43"/>
<path fill-rule="evenodd" clip-rule="evenodd" d="M22.0569 3.08081C32.5356 3.08081 41.0217 11.5783 41.0217 22.0456C41.0217 32.5243 32.5242 41.0104 22.0569 41.0104C11.5782 41.0104 3.0921 32.5129 3.0921 22.0456C3.0921 11.5783 11.5782 3.08081 22.0569 3.08081Z" fill="#E6E6E6"/>
<path fill-rule="evenodd" clip-rule="evenodd" d="M22.0569 2.54248C32.8334 2.54248 41.5714 11.2805 41.5714 22.057C41.5714 32.8335 32.8334 41.5715 22.0569 41.5715C11.2804 41.5715 2.54242 32.8335 2.54242 22.057C2.54242 11.269 11.2804 2.54248 22.0569 2.54248Z" fill="#252D43"/>
<path fill-rule="evenodd" clip-rule="evenodd" d="M21.8627 6.3623C30.6436 6.3623 37.7685 13.4872 37.7685 22.2681C37.7685 31.049 30.6436 38.1739 21.8627 38.1739C13.0818 38.1739 5.95692 31.049 5.95692 22.2681C5.95692 13.4872 13.0818 6.3623 21.8627 6.3623Z" fill="white"/>
<path fill-rule="evenodd" clip-rule="evenodd" d="M21.8627 14.5425C26.1277 14.5425 29.5884 18.0031 29.5884 22.2682C29.5884 26.5332 26.1277 29.9938 21.8627 29.9938C17.5977 29.9938 14.1371 26.5332 14.1371 22.2682C14.1371 18.0031 17.5977 14.5425 21.8627 14.5425Z" fill="#EC8525"/>
</svg>
