<svg width="91" height="91" viewBox="0 0 91 91" fill="none" xmlns="http://www.w3.org/2000/svg">
<path d="M51.5601 63.2174C52.3894 63.7915 52.5808 64.9398 52.0067 65.769L49.1999 69.7879C48.6258 70.6172 47.4775 70.8086 46.6482 70.2344L36.314 63.026C35.4847 62.4519 35.2934 61.3036 35.8675 60.4744L38.6743 56.4555C39.2484 55.6262 40.3967 55.4348 41.226 56.009L51.5601 63.2174Z" fill="#252D43"/>
<path d="M53.7291 29.2804C51.8153 29.2804 50.2843 30.8114 50.2843 32.7251C50.2843 34.6389 51.8153 36.1699 53.7291 36.1699C55.6428 36.1699 57.1738 34.6389 57.1738 32.7251C57.2376 30.8114 55.6428 29.2804 53.7291 29.2804Z" fill="#252D43"/>
<path d="M31.0831 41.4645L41.2897 51.6711L54.9411 38.0198L39.1846 22.2633C39.5036 27.3666 38.3554 32.4699 35.4847 36.7439C34.2089 38.5939 32.7417 40.1887 31.0831 41.4645Z" fill="#F1F4FA"/>
<path d="M31.4021 41.1455L23.9385 48.6091C21.0679 51.4797 21.0679 56.1365 23.9385 59.0071L27.5108 62.5794C30.3814 65.45 35.0382 65.45 37.9088 62.5794L45.3724 55.1158L31.4021 41.1455Z" fill="#4B5678"/>
<path d="M65.7218 47.4609C65.0839 48.0988 63.9357 48.035 63.1702 47.2695L39.1846 23.3477C38.4191 22.5822 38.3553 21.4978 38.9933 20.7961L40.1415 19.6478C40.7794 19.0099 41.9277 19.0737 42.6932 19.8392L66.6787 43.8248C67.4442 44.5903 67.508 45.6747 66.8701 46.3764L65.7218 47.4609Z" fill="#EC8525"/>
<path d="M64.1909 47.3333L51.624 34.7664L37.9726 48.4177L44.9896 55.4348C46.2655 53.7762 47.8603 52.309 49.7102 51.0331C53.9842 48.1625 59.0876 46.9505 64.1909 47.3333Z" fill="#C1D0EF"/>
<path d="M38.2915 48.0349L25.5971 60.7294L27.447 62.5793C30.3176 65.45 34.9744 65.45 37.845 62.5793L45.3086 55.1158L38.2915 48.0349Z" fill="#252D43"/>
<path d="M66.7425 43.7609L54.6859 31.7043L51.1774 35.2129L63.234 47.2694C63.9995 48.0349 65.0839 48.0987 65.7856 47.4608L66.9339 46.3126C67.508 45.6109 67.4442 44.5264 66.7425 43.7609Z" fill="#EC8525"/>
<path d="M40.7156 61.9414C40.2053 61.5587 39.4398 61.6863 39.0571 62.2604C38.6743 62.7707 38.8019 63.5362 39.376 63.919L47.0948 69.2137C47.6051 69.5964 48.3706 69.4688 48.7534 68.8947C49.1361 68.3844 49.0085 67.6189 48.4344 67.2361L40.7156 61.9414Z" fill="#4B5678"/>
<path d="M58.2582 28.7062C58.1306 28.7062 58.0669 28.6424 58.0031 28.5786C57.8755 28.451 57.8755 28.1959 58.0031 28.0045L68.1459 17.8617C68.2735 17.7341 68.5286 17.7341 68.72 17.8617C68.8476 17.9893 68.8476 18.2444 68.72 18.4358L58.5772 28.5786C58.4496 28.7062 58.3858 28.7062 58.2582 28.7062Z" fill="#FEC00F"/>
<path d="M55.898 26.7287C55.8342 26.7287 55.8342 26.7287 55.7704 26.7287C55.579 26.6649 55.4514 26.4098 55.5152 26.2184L60.1082 12.6946C60.172 12.5032 60.4272 12.3757 60.6185 12.4394C60.8099 12.5032 60.9375 12.7584 60.8737 12.9498L56.2807 26.4735C56.2169 26.6649 56.0894 26.7287 55.898 26.7287Z" fill="#FEC00F"/>
<path d="M60.2996 31.0665C60.1082 31.0665 59.9806 30.9389 59.9168 30.8113C59.853 30.6199 59.9806 30.3648 60.172 30.301L73.6958 25.708C73.8871 25.6442 74.1423 25.7718 74.2061 25.9632C74.2699 26.1545 74.1423 26.4097 73.9509 26.4735L60.4272 31.0665C60.3634 31.0665 60.2996 31.0665 60.2996 31.0665Z" fill="#FEC00F"/>
</svg>
