<svg width="106" height="39" viewBox="0 0 106 39" fill="none" xmlns="http://www.w3.org/2000/svg">
<path d="M0 23.1502C0 21.8072 0.153407 20.4931 0.460221 19.2077C0.786211 17.9031 1.23684 16.6753 1.81212 15.5242C2.3874 14.3539 3.06814 13.2891 3.85435 12.3299C4.65974 11.3514 5.53224 10.5073 6.47185 9.79746C7.43065 9.08762 8.44697 8.54084 9.52082 8.15714C10.5947 7.75426 11.6973 7.55282 12.8287 7.55282C14.1518 7.55282 15.1777 7.831 15.9064 8.38736C16.6542 8.94373 17.0282 9.72072 17.0282 10.7183C17.0282 11.102 16.9706 11.4953 16.8556 11.8982C16.7597 12.3011 16.6063 12.704 16.3954 13.1069C16.2036 13.4906 15.9735 13.8647 15.705 14.2292C15.4366 14.5937 15.1393 14.9103 14.8134 15.1788C14.3148 15.1021 13.8833 14.8815 13.519 14.517C13.1546 14.1333 12.9245 13.692 12.8287 13.1932C13.4998 12.6368 14.0271 12.0613 14.4107 11.4665C14.8134 10.8526 15.0147 10.2963 15.0147 9.79746C15.0147 8.95332 14.4874 8.53125 13.4327 8.53125C12.9916 8.53125 12.5314 8.62718 12.052 8.81903C11.5918 8.99169 11.122 9.24109 10.6426 9.56724C10.1632 9.89338 9.6934 10.2867 9.23318 10.7471C8.79213 11.2076 8.37985 11.716 7.99634 12.2723C5.33089 16.1093 3.99817 20.0326 3.99817 24.0423C3.99817 25.462 4.21869 26.6035 4.65974 27.4668C5.10078 28.3301 5.68564 28.8385 6.41433 28.992C7.23889 28.8002 8.29753 28.3673 9.56314 27.504C10.8287 26.6406 11.1945 25.9844 11.7069 25.2274C11.8986 25.4193 12.0137 25.6207 12.052 25.8318C11.4959 26.5608 12.9054 26.0759 12.3109 26.7474C11.7165 27.4188 11.122 28.0328 10.5276 28.5891C9.95227 29.1455 9.377 29.6347 8.80172 30.0568C8.24562 30.4788 7.72787 30.805 7.24848 31.0352C4.87067 30.9968 3.06814 30.3158 1.84088 28.992C0.613628 27.6683 0 25.721 0 23.1502Z" fill="#252D43"/>
<path d="M21.0293 16.0733C21.2214 16.0702 21.4429 16.1051 21.6938 16.1779C21.9636 16.2313 22.2051 16.3139 22.4182 16.4257C22.631 16.5184 22.8056 16.6212 22.9419 16.7343C23.0974 16.8471 23.1759 16.9515 23.1774 17.0476C22.8062 17.8604 22.4639 18.6824 22.1506 19.5135C21.837 20.3254 21.571 21.1077 21.3525 21.8604C21.134 22.6132 20.9627 23.3172 20.8387 23.9723C20.7339 24.6272 20.6854 25.1947 20.693 25.6749C20.7016 26.2127 20.7665 26.6631 20.8876 27.0262C21.0083 27.3701 21.2044 27.6167 21.4757 27.766C21.2477 27.9234 20.952 28.053 20.5886 28.1549C20.2252 28.2567 19.8995 28.31 19.6114 28.3146C18.5742 28.3312 18.0443 27.6288 18.0215 26.2075C18.004 25.1127 18.345 23.6088 19.0444 21.6956C18.6744 22.5853 18.246 23.4279 17.7593 24.2233C17.2722 24.9996 16.7741 25.6896 16.2651 26.2933C15.756 26.897 15.2356 27.3952 14.704 27.7879C14.1913 28.1611 13.7146 28.3897 13.2741 28.4736C12.5628 28.4465 11.9813 28.1196 11.5294 27.4929C11.0772 26.8469 10.8431 26.0246 10.8271 25.0258C10.8099 23.9502 11.0222 22.8134 11.4642 21.6152C11.9061 20.417 12.4742 19.3032 13.1686 18.2739C13.8821 17.2443 14.6561 16.3866 15.4904 15.7008C16.3245 14.9959 17.1349 14.6179 17.9218 14.5669C18.1148 14.6214 18.3279 14.7333 18.5611 14.9025C18.8136 15.0713 19.0473 15.2693 19.2623 15.4964C19.4964 15.7232 19.6923 15.9602 19.85 16.2074C20.0073 16.4355 20.097 16.6357 20.1189 16.8083C19.3525 16.9358 18.5614 17.3231 17.7457 17.9701C16.9491 18.6169 16.222 19.397 15.5642 20.3104C14.9253 21.2044 14.4027 22.1637 13.9964 23.1884C13.5902 24.2132 13.3941 25.1673 13.4082 26.0508C13.4141 26.4157 13.5522 26.644 13.8226 26.7358C14.3778 26.6116 15.0137 26.1308 15.7303 25.2932C16.4467 24.4364 17.3094 23.1258 18.3186 21.3614C18.5052 21.0126 18.7103 20.6251 18.934 20.1989C19.177 19.7724 19.4196 19.3266 19.6619 18.8617C19.9042 18.3967 20.1369 17.9319 20.36 17.4672C20.602 16.9831 20.8251 16.5184 21.0293 16.0733Z" fill="#252D43"/>
<path d="M44.9665 14.0568C45.1589 14.0568 45.3801 14.0953 45.6302 14.1724C45.8996 14.2302 46.1401 14.3169 46.3517 14.4325C46.5634 14.5288 46.7365 14.6347 46.8712 14.7503C47.0252 14.8659 47.1021 14.9718 47.1021 15.0682C46.7173 15.8772 46.3614 16.6959 46.0343 17.5243C45.7072 18.3333 45.4282 19.1135 45.1973 19.8648C44.9665 20.616 44.7837 21.3192 44.649 21.9741C44.5336 22.6291 44.4758 23.1974 44.4758 23.6789C44.4758 24.2183 44.5336 24.671 44.649 25.037C44.7644 25.3838 44.9568 25.6342 45.2262 25.7883C44.9953 25.9424 44.6971 26.0676 44.3315 26.1639C43.966 26.2602 43.6389 26.3084 43.3503 26.3084C42.3113 26.3084 41.7918 25.5957 41.7918 24.1702C41.7918 23.0721 42.1574 21.5696 42.8885 19.6625C42.5037 20.5486 42.0612 21.3866 41.5609 22.1764C41.0607 22.9469 40.5508 23.6308 40.0314 24.2279C39.5119 24.8251 38.9828 25.3163 38.444 25.7016C37.9246 26.0676 37.4436 26.2891 37.001 26.3662C36.2891 26.3277 35.7119 25.9906 35.2694 25.3549C34.8269 24.6999 34.6056 23.8716 34.6056 22.8699C34.6056 21.7911 34.8365 20.6546 35.2983 19.4602C35.76 18.2659 36.3469 17.1582 37.0588 16.1373C37.7899 15.1163 38.5787 14.2687 39.4253 13.5945C40.2719 12.901 41.0896 12.535 41.8784 12.4965C42.0708 12.5543 42.2825 12.6699 42.5133 12.8432C42.7635 13.0166 42.9943 13.2189 43.206 13.45C43.4369 13.6812 43.6293 13.922 43.7832 14.1724C43.9371 14.4036 44.0237 14.6058 44.0429 14.7792C43.2733 14.8948 42.4749 15.2704 41.6475 15.9061C40.8394 16.5418 40.0987 17.3124 39.4253 18.2177C38.7711 19.1039 38.2324 20.0574 37.8091 21.0784C37.3858 22.0993 37.1742 23.0529 37.1742 23.939C37.1742 24.305 37.3089 24.5362 37.5782 24.6325C38.1362 24.5169 38.7807 24.0449 39.5119 23.2166C40.243 22.369 41.128 21.0687 42.167 19.3158C42.3594 18.969 42.5711 18.5837 42.8019 18.1599C43.0521 17.7362 43.3022 17.2931 43.5523 16.8308C43.8024 16.3684 44.0429 15.9061 44.2738 15.4438C44.5239 14.9622 44.7548 14.4999 44.9665 14.0568Z" fill="#252D43"/>
<path d="M67.6249 11.5695C67.8173 11.5695 68.0386 11.6077 68.2887 11.684C68.5581 11.7412 68.7986 11.827 69.0102 11.9415C69.2218 12.0368 69.395 12.1417 69.5297 12.2562C69.6836 12.3706 69.7606 12.4755 69.7606 12.5709C69.3758 13.3719 69.0198 14.1825 68.6927 15.0026C68.3657 15.8037 68.0867 16.5761 67.8558 17.32C67.6249 18.0638 67.4421 18.76 67.3074 19.4085C67.192 20.0569 67.1343 20.6196 67.1343 21.0964C67.1343 21.6304 67.192 22.0786 67.3074 22.441C67.4229 22.7843 67.6153 23.0323 67.8847 23.1849C67.6538 23.3374 67.3555 23.4614 66.99 23.5568C66.6244 23.6521 66.2973 23.6998 66.0087 23.6998C64.9698 23.6998 64.4503 22.9941 64.4503 21.5827C64.4503 20.4956 64.8158 19.0079 65.547 17.1197C65.1622 17.9971 64.7196 18.8267 64.2194 19.6087C63.7192 20.3716 63.2093 21.0487 62.6898 21.64C62.1703 22.2312 61.6412 22.7176 61.1025 23.099C60.583 23.4614 60.102 23.6808 59.6595 23.757C58.9476 23.7189 58.3704 23.3851 57.9279 22.7557C57.4853 22.1072 57.2641 21.2871 57.2641 20.2953C57.2641 19.2273 57.495 18.102 57.9567 16.9195C58.4185 15.7369 59.0053 14.6403 59.7172 13.6294C60.4483 12.6185 61.2372 11.7793 62.0837 11.1118C62.9303 10.4252 63.748 10.0628 64.5369 10.0246C64.7293 10.0819 64.9409 10.1963 65.1718 10.368C65.4219 10.5396 65.6528 10.7399 65.8644 10.9688C66.0953 11.1976 66.2877 11.436 66.4416 11.684C66.5956 11.9129 66.6821 12.1131 66.7014 12.2848C65.9318 12.3992 65.1333 12.7711 64.306 13.4005C63.4979 14.0299 62.7571 14.7928 62.0837 15.6893C61.4296 16.5666 60.8909 17.5107 60.4676 18.5216C60.0443 19.5324 59.8326 20.4765 59.8326 21.3539C59.8326 21.7163 59.9673 21.9451 60.2367 22.0405C60.7947 21.9261 61.4392 21.4588 62.1703 20.6386C62.9014 19.7994 63.7865 18.512 64.8255 16.7764C65.0179 16.4331 65.2295 16.0516 65.4604 15.632C65.7105 15.2124 65.9606 14.7738 66.2108 14.316C66.4609 13.8583 66.7014 13.4005 66.9323 12.9428C67.1824 12.466 67.4133 12.0082 67.6249 11.5695Z" fill="#252D43"/>
<path d="M26.867 11.8099C27.3669 11.9632 27.8381 12.3082 28.2803 12.8448C28.7226 13.3623 29.0495 13.9372 29.261 14.5697C29.0495 15.0872 28.7226 15.71 28.2803 16.4383C27.8381 17.1666 27.3958 17.9141 26.9535 18.6807C26.5113 19.4281 26.1075 20.1468 25.7421 20.8368C25.396 21.5076 25.1941 22.0634 25.1364 22.5042C25.4441 22.1784 25.7806 21.8046 26.1459 21.383C26.5305 20.9422 26.8958 20.511 27.242 20.0893C27.6073 19.6485 27.9438 19.2556 28.2515 18.9107C28.5591 18.5465 28.7995 18.2782 28.9725 18.1057C29.3379 17.7224 29.7705 17.2816 30.2705 16.7833C30.7704 16.2658 31.2896 15.7867 31.828 15.3459C32.3857 14.8859 32.9433 14.5026 33.5009 14.196C34.0586 13.8701 34.5681 13.7072 35.0296 13.7072C35.5296 13.7072 35.943 13.8797 36.2699 14.2247C36.616 14.5505 36.8852 14.8955 37.0775 15.2596C37.0775 15.298 37.0005 15.3555 36.8467 15.4321C36.7121 15.4896 36.5102 15.6717 36.241 15.9783C35.9718 16.3233 35.6642 16.8025 35.318 17.4158C34.9911 18.0099 34.6643 18.6615 34.3374 19.3706C34.0297 20.0606 33.7701 20.7697 33.5586 21.498C33.3471 22.2263 33.2413 22.8875 33.2413 23.4816C33.2413 23.9608 33.299 24.2674 33.4144 24.4016C33.549 24.5357 33.7317 24.6028 33.9624 24.6028C34.1739 24.6028 34.3951 24.5549 34.6258 24.4591C34.8565 24.3632 35.0392 24.3153 35.1738 24.3153C35.2507 24.3537 35.3084 24.4399 35.3469 24.5741C35.4046 24.689 35.4334 24.7945 35.4334 24.8903C35.2796 25.0244 35.0969 25.1586 34.8854 25.2928C34.6739 25.4269 34.4527 25.5515 34.222 25.6665C33.9912 25.7815 33.7605 25.8773 33.5298 25.954C33.3182 26.0306 33.126 26.069 32.9529 26.069C32.3953 26.069 31.9338 25.9827 31.5684 25.8102C31.2223 25.6569 30.9435 25.4461 30.732 25.1778C30.5397 24.9095 30.4051 24.5932 30.3282 24.2291C30.2513 23.8458 30.2128 23.4433 30.2128 23.0217C30.2128 22.7917 30.232 22.5329 30.2705 22.2455C30.3089 21.958 30.3859 21.6226 30.5012 21.2393C30.6166 20.8368 30.78 20.3672 30.9916 19.8306C31.2031 19.2748 31.4723 18.6136 31.7992 17.847C31.7607 17.847 31.5011 17.9811 31.0204 18.2495C30.5397 18.5178 30.0205 18.9298 29.4629 19.4856C28.5591 20.3481 27.7419 21.2009 27.0112 22.0442C26.2997 22.8875 25.5691 23.8266 24.8191 24.8615C24.3961 25.4557 24.0211 25.954 23.6943 26.3564C23.3866 26.7781 23.1174 27.056 22.8866 27.1901C22.4828 26.9602 22.1848 26.6343 21.9925 26.2127C21.8002 25.8102 21.656 25.3886 21.5599 24.9478C21.5599 24.5836 21.6079 24.1237 21.7041 23.5679C21.8194 23.0121 21.9637 22.3988 22.1367 21.728C22.329 21.038 22.5598 20.3193 22.829 19.5719C23.0982 18.8244 23.3962 18.077 23.7231 17.3295C24.4538 15.643 25.1172 14.3205 25.7133 13.3623C26.3286 12.404 26.7132 11.8865 26.867 11.8099Z" fill="#252D43"/>
<path d="M52.7902 10.5055C53.1737 10.5055 53.6146 10.621 54.1131 10.8519C54.6115 11.0827 55.0525 11.381 55.4359 11.7466C55.34 10.9769 55.2154 10.2554 55.0621 9.58195C54.9279 8.88928 54.717 8.17737 54.4294 7.44622C54.161 6.71506 53.7967 5.91657 53.3366 5.05073C52.8765 4.18489 52.3014 3.19398 51.6112 2.07801C51.6687 1.90485 51.7933 1.70282 51.985 1.47193C52.1959 1.24104 52.426 1.02939 52.6752 0.836977C52.9436 0.625328 53.212 0.44254 53.4804 0.288613C53.768 0.134686 54.0364 0.0384812 54.2856 0C54.8224 0.596467 55.3305 1.34686 55.8097 2.25118C56.289 3.13626 56.7108 4.0983 57.0751 5.13731C57.4393 6.15708 57.7173 7.21533 57.909 8.31206C58.1199 9.40879 58.2254 10.4574 58.2254 11.4579C58.2254 12.4585 58.1103 13.4878 57.8803 14.5461C57.6694 15.6043 57.3626 16.6434 56.96 17.6631C56.5766 18.6636 56.1261 19.6161 55.6084 20.5204C55.0908 21.4247 54.5253 22.2328 53.9118 22.9447C53.3174 23.6566 52.6944 24.2339 52.0425 24.6764C51.3907 25.1382 50.7389 25.4268 50.0871 25.5423C48.7642 25.3883 47.7481 24.9554 47.0388 24.2435C46.3486 23.5508 46.0035 22.5888 46.0035 21.3574C46.0035 20.7032 46.0994 19.9913 46.2911 19.2216C46.502 18.452 46.7704 17.692 47.0963 16.9416C47.4414 16.172 47.8344 15.4312 48.2753 14.7193C48.7355 13.9881 49.2147 13.3339 49.7132 12.7567C50.2308 12.1795 50.7485 11.6888 51.2661 11.2848C51.7837 10.8807 52.2918 10.621 52.7902 10.5055ZM49.857 24.3878C50.528 24.1569 51.199 23.647 51.87 22.8582C52.541 22.0693 53.1449 21.1457 53.6817 20.0875C54.2185 19.01 54.6499 17.8651 54.9758 16.653C55.3209 15.4216 55.4934 14.2382 55.4934 13.103C55.4934 12.7759 55.4934 12.5739 55.4934 12.4969C55.4934 12.42 55.4838 12.343 55.4647 12.2661C55.0045 12.4585 54.5157 12.7856 53.998 13.2473C53.4804 13.7091 52.9628 14.2479 52.4451 14.8636C51.9275 15.46 51.4386 16.1142 50.9785 16.8261C50.5184 17.5381 50.1062 18.25 49.742 18.9619C49.3777 19.6738 49.0901 20.3568 48.8792 21.011C48.6684 21.6652 48.5629 22.2424 48.5629 22.7427C48.5629 23.7048 48.9943 24.2531 49.857 24.3878Z" fill="#252D43"/>
<path d="M29.8596 37.5531V31.278H32.0021C32.7372 31.278 33.3408 31.4095 33.813 31.6724C34.2911 31.9294 34.6437 32.294 34.8708 32.7661C35.1039 33.2322 35.2204 33.7821 35.2204 34.4156C35.2204 35.0491 35.1039 35.6019 34.8708 36.074C34.6437 36.5401 34.2911 36.9047 33.813 37.1677C33.3408 37.4246 32.7372 37.5531 32.0021 37.5531H29.8596ZM31.0071 36.567H31.9483C32.4743 36.567 32.8896 36.4834 33.1944 36.316C33.4992 36.1427 33.7173 35.8977 33.8488 35.5809C33.9803 35.2582 34.046 34.8698 34.046 34.4156C34.046 33.9673 33.9803 33.5819 33.8488 33.2591C33.7173 32.9364 33.4992 32.6884 33.1944 32.5151C32.8896 32.3418 32.4743 32.2551 31.9483 32.2551H31.0071V36.567Z" fill="#252D43"/>
<path d="M37.8016 37.5531V31.278H38.9491V37.5531H37.8016Z" fill="#252D43"/>
<path d="M43.8766 37.6607C43.4164 37.6607 43.01 37.583 42.6574 37.4276C42.3048 37.2663 42.0269 37.0392 41.8237 36.7463C41.6205 36.4475 41.516 36.0859 41.51 35.6616H42.7202C42.7321 35.9545 42.8367 36.2025 43.0339 36.4057C43.2371 36.6029 43.515 36.7015 43.8676 36.7015C44.1724 36.7015 44.4145 36.6298 44.5938 36.4864C44.7731 36.337 44.8627 36.1397 44.8627 35.8947C44.8627 35.6377 44.782 35.4375 44.6207 35.2941C44.4653 35.1507 44.2561 35.0341 43.9931 34.9445C43.7302 34.8548 43.4493 34.7592 43.1505 34.6576C42.6664 34.4903 42.2959 34.2751 42.0389 34.0122C41.7879 33.7492 41.6624 33.3996 41.6624 32.9633C41.6564 32.5928 41.7431 32.276 41.9223 32.0131C42.1076 31.7441 42.3586 31.538 42.6754 31.3945C42.9921 31.2451 43.3567 31.1704 43.769 31.1704C44.1874 31.1704 44.5549 31.2451 44.8717 31.3945C45.1944 31.5439 45.4454 31.7531 45.6247 32.022C45.81 32.291 45.9086 32.6107 45.9205 32.9812H44.6924C44.6864 32.7601 44.5997 32.5659 44.4324 32.3985C44.271 32.2252 44.0439 32.1386 43.7511 32.1386C43.5001 32.1326 43.2879 32.1954 43.1146 32.3268C42.9473 32.4523 42.8636 32.6376 42.8636 32.8826C42.8636 33.0918 42.9294 33.2591 43.0608 33.3846C43.1923 33.5042 43.3716 33.6058 43.5987 33.6894C43.8258 33.7731 44.0858 33.8628 44.3786 33.9584C44.6894 34.0659 44.9733 34.1914 45.2302 34.3349C45.4872 34.4783 45.6934 34.6696 45.8488 34.9086C46.0042 35.1417 46.0819 35.4435 46.0819 35.814C46.0819 36.1427 45.9982 36.4475 45.8309 36.7284C45.6635 37.0093 45.4155 37.2364 45.0868 37.4097C44.7581 37.577 44.3547 37.6607 43.8766 37.6607Z" fill="#252D43"/>
<path d="M50.0342 37.5531V32.2013H48.2055V31.278H53.0194V32.2013H51.1817V37.5531H50.0342Z" fill="#252D43"/>
<path d="M55.4382 37.5531V31.278H57.7421C58.2441 31.278 58.6565 31.3646 58.9792 31.538C59.3079 31.7053 59.5529 31.9354 59.7143 32.2282C59.8757 32.5151 59.9563 32.8348 59.9563 33.1874C59.9563 33.5699 59.8547 33.9195 59.6515 34.2363C59.4543 34.553 59.1436 34.7831 58.7192 34.9265L60.0191 37.5531H58.7013L57.5359 35.0789H56.5857V37.5531H55.4382ZM56.5857 34.2363H57.6704C58.0529 34.2363 58.3338 34.1436 58.5131 33.9584C58.6923 33.7731 58.782 33.5281 58.782 33.2233C58.782 32.9245 58.6923 32.6854 58.5131 32.5061C58.3397 32.3268 58.0559 32.2372 57.6614 32.2372H56.5857V34.2363Z" fill="#252D43"/>
<path d="M62.5923 37.5531V31.278H63.7398V37.5531H62.5923Z" fill="#252D43"/>
<path d="M69.3666 37.6607C68.7331 37.6607 68.1892 37.5262 67.735 37.2573C67.2808 36.9824 66.9312 36.6029 66.6862 36.1188C66.4411 35.6288 66.3186 35.064 66.3186 34.4245C66.3186 33.7851 66.4411 33.2203 66.6862 32.7302C66.9312 32.2402 67.2808 31.8577 67.735 31.5828C68.1892 31.3079 68.7331 31.1704 69.3666 31.1704C70.1196 31.1704 70.7351 31.3587 71.2132 31.7352C71.6973 32.1057 71.9991 32.6286 72.1187 33.304H70.8547C70.777 32.9633 70.6096 32.6974 70.3526 32.5061C70.1016 32.3089 69.767 32.2103 69.3486 32.2103C68.7689 32.2103 68.3147 32.4075 67.986 32.802C67.6573 33.1964 67.493 33.7372 67.493 34.4245C67.493 35.1118 67.6573 35.6527 67.986 36.0471C68.3147 36.4356 68.7689 36.6298 69.3486 36.6298C69.767 36.6298 70.1016 36.5401 70.3526 36.3609C70.6096 36.1756 70.777 35.9216 70.8547 35.5989H72.1187C71.9991 36.2443 71.6973 36.7493 71.2132 37.1139C70.7351 37.4784 70.1196 37.6607 69.3666 37.6607Z" fill="#252D43"/>
<path d="M76.0856 37.5531V32.2013H74.2568V31.278H79.0708V32.2013H77.233V37.5531H76.0856Z" fill="#252D43"/>
<path d="M94.8845 15.5958C94.8845 15.5958 92.8136 14.7049 91.1698 14.3549C90.6634 14.247 90.3575 13.7658 90.5104 13.3272L90.9869 11.9587C90.9869 11.9587 86.4506 13.1289 84.7161 14.5159C84.7161 14.5159 87.1933 10.3722 89.4023 8.09892L87.7799 8.17088C86.9464 8.20784 86.2178 7.60785 86.1786 6.85247L86.0411 4.20861L81.8109 7.54247C81.2476 7.9864 80.3812 7.94721 79.8252 7.45245L79.2804 6.96728C79.2804 6.96728 78.5072 12.2375 78.5643 14.244L75.4484 11.7828L75.5411 12.6942C75.6233 13.505 74.9261 14.1788 74.0264 14.1576L71.2202 14.0915L72.8454 17.1042C73.1517 17.6723 72.8667 18.3351 72.2271 18.5419L71.3137 18.8366C71.3137 18.8366 74.6663 19.4834 77.0399 21.1408C77.3395 21.3499 77.4459 21.7129 77.3012 22.0162L76.7393 23.1907C76.7393 23.1907 77.8578 22.6443 79.4589 22.6113C79.3316 19.9135 79.8211 16.0877 82.5275 12.1361C82.5275 12.1361 81.1411 14.5374 80.5706 17.837C79.4802 22.8621 81.0988 26.6288 81.0988 26.6288L81.4529 26.7029C82.0488 26.8272 82.5281 26.3014 82.2798 25.7929C81.8193 24.8445 81.4843 23.8421 81.2831 22.8106C82.0742 23.0037 82.9126 23.3557 83.7493 23.9499L83.758 21.9718C83.7595 21.6507 83.9698 21.3691 84.2943 21.2495C85.3592 20.8579 88.03 20.0544 92.435 19.8716L91.4299 18.7943C91.1174 18.4575 91.1492 17.968 91.5055 17.6948C92.3843 17.0208 93.9658 15.8732 94.8845 15.5958Z" fill="#EC8525"/>
<path d="M87.0884 7.09692C88.1023 6.69688 89.2067 6.49686 90.4017 6.49686C92.8602 6.49686 94.9351 7.3436 96.6264 9.03708C98.3187 10.7315 99.1648 12.9071 99.1648 15.5638C99.1648 17.2944 98.4467 19.2745 97.0106 21.5042C95.5744 23.7349 93.3714 26.2151 90.4017 28.945C88.104 26.8329 86.2653 24.8702 84.8856 23.057L85.1846 25.6126C84.2107 25.0807 83.2589 24.7424 82.3519 24.5451C84.2645 27.1191 86.9478 29.8776 90.4017 32.8204C94.3208 29.4812 97.2481 26.3794 99.1838 23.515C101.119 20.6516 102.086 18.0012 102.086 15.5638C102.086 11.9078 100.911 8.99515 98.5616 6.8259C96.2131 4.65665 93.4931 3.57202 90.4017 3.57202C89.9347 3.57202 89.4762 3.59677 89.0262 3.64626C88.333 4.77809 87.6711 5.97964 87.0884 7.09692Z" fill="#252D43"/>
</svg>
