<svg width="93" height="92" viewBox="0 0 93 92" fill="none" xmlns="http://www.w3.org/2000/svg">
<path d="M72.4663 58.2844C69.2767 56.7534 67.6181 56.3069 63.8544 55.4138C63.982 54.5845 64.1096 53.7552 64.1734 52.9898C64.9389 52.4794 65.513 51.7777 65.513 51.2036C65.5768 50.4381 65.7044 49.6726 65.7682 48.9071C65.8958 49.0347 66.0233 49.0985 66.1509 49.0985C66.5337 49.1623 66.8526 48.8433 66.8526 48.5244L67.2354 45.0158C67.2992 44.6331 66.9802 44.3141 66.6613 44.3141C66.5337 44.3141 66.4061 44.3141 66.2785 44.3779C66.3423 43.74 66.4061 43.0383 66.5337 42.4004C66.5975 41.5073 67.044 39.0832 65.3216 37.4885C62.77 35.0006 57.1563 35.0006 54.6047 37.4885C52.8185 39.0832 53.3289 41.5073 53.3289 42.4004C53.3926 43.0383 53.4565 43.74 53.584 44.3779C53.4565 44.3141 53.3289 44.3141 53.2013 44.3141C52.8185 44.3779 52.5634 44.6969 52.6272 45.0158L53.0099 48.5244C53.0737 48.9071 53.3927 49.1623 53.7116 49.0985C53.903 49.0985 54.0306 48.9709 54.0944 48.9071C54.1582 49.6726 54.2857 50.4381 54.3495 51.2036C54.4133 51.7777 54.9236 52.5432 55.6891 52.9898C55.8167 53.819 55.9443 54.6483 56.0081 55.4138C52.5634 55.7966 49.1824 56.7534 46.0566 58.2844C45.036 58.7948 44.3343 60.1982 44.4619 61.2826C44.5894 62.4947 44.717 63.7705 44.8446 64.9825C44.9722 66.067 45.8653 67.0876 46.8859 67.3428C55.5616 68.7462 62.9614 68.7462 71.637 67.3428C72.6576 67.1514 73.5507 66.067 73.6783 64.9825C73.8059 63.7705 73.9335 62.4947 74.061 61.2826C74.2524 60.1982 73.4869 58.7948 72.4663 58.2844Z" fill="#808FBC"/>
<path d="M59.6442 35.5747C57.7305 35.6385 55.8805 36.2764 54.6685 37.4247C52.8823 39.0195 53.3927 41.4435 53.3927 42.3366C53.4565 42.9745 53.5202 43.6762 53.6478 44.3141C53.5202 44.2503 53.3927 44.2503 53.2651 44.2503C52.8824 44.3141 52.6272 44.6331 52.691 44.952L53.0737 48.4606C53.1375 48.8433 53.4565 49.0985 53.7754 49.0347C53.9668 49.0347 54.0944 48.9071 54.1582 48.8433C54.222 49.6088 54.3495 50.3743 54.4133 51.1398C54.4771 51.7139 54.9875 52.4794 55.753 52.926C55.8805 53.7553 56.0081 54.5845 56.0719 55.35C52.6272 55.7328 49.2462 56.6897 46.1205 58.2206C45.0998 58.731 44.3981 60.1344 44.5257 61.2188C44.6533 62.4309 44.7808 63.7067 44.9084 64.9187C45.036 66.0032 45.9291 67.0239 46.9497 67.279C51.16 67.9807 55.3702 68.2997 59.6442 68.2997V35.5747Z" fill="#C1D0EF"/>
<path d="M56.2633 60.5171C52.2444 58.6033 47.9066 57.3913 43.505 56.881C43.6326 55.8603 43.8239 54.7759 43.9515 53.7552C44.9084 53.1173 45.6101 52.2242 45.6739 51.4587C45.8015 50.5019 45.9291 49.545 45.9928 48.5243C46.1204 48.6519 46.3118 48.7795 46.5032 48.7795C46.9497 48.8433 47.3963 48.4605 47.4601 48.014L47.9066 43.5486C47.9704 43.102 47.5876 42.6555 47.1411 42.6555C46.9497 42.6555 46.8221 42.6555 46.6308 42.7831C46.7583 41.9538 46.8221 41.0607 46.9497 40.2314C47.0135 39.0832 47.5876 35.9574 45.3549 33.9161C42.1016 30.7265 34.9569 30.7265 31.7036 33.9161C29.4709 35.8936 30.045 39.0194 30.1088 40.2314C30.2364 41.0607 30.3002 41.9538 30.4278 42.7831C30.3002 42.7193 30.1088 42.6555 29.9174 42.6555C29.4709 42.7193 29.0881 43.102 29.1519 43.5486L29.5985 48.014C29.6623 48.4605 30.045 48.8433 30.4915 48.7795C30.6829 48.7795 30.8743 48.6519 31.0019 48.5243C31.1295 49.4812 31.257 50.4381 31.3208 51.4587C31.3846 52.2242 32.0863 53.1811 33.0432 53.7552C33.1708 54.7759 33.3622 55.8603 33.4897 56.881C29.0881 57.3913 24.7503 58.6033 20.7315 60.5171C19.4556 61.2188 18.4988 62.9411 18.6263 64.3446C18.7539 65.9393 18.9453 67.4703 19.0729 69.0651C19.2005 70.4048 20.4125 71.8082 21.6883 72.0633C32.7243 73.8495 44.0153 73.8495 55.0512 72.0633C56.327 71.8082 57.5391 70.4685 57.6667 69.0651C57.858 67.4703 57.9856 65.9393 58.1132 64.3446C58.4322 62.9411 57.5391 61.2188 56.2633 60.5171Z" fill="#252D43"/>
<path d="M38.0827 31.4919C35.6586 31.5557 33.2346 32.385 31.7036 33.8522C29.4709 35.8298 30.045 38.9556 30.1088 40.1676C30.2364 40.9969 30.3002 41.89 30.4278 42.7192C30.3002 42.6555 30.1088 42.5917 29.9174 42.5917C29.4709 42.6554 29.0881 43.0382 29.1519 43.4848L29.5985 47.9501C29.6623 48.3967 30.045 48.7794 30.4915 48.7156C30.6829 48.7156 30.8743 48.5881 31.0019 48.4605C31.1295 49.4173 31.257 50.3742 31.3208 51.3949C31.3846 52.1604 32.0863 53.1172 33.0432 53.6914C33.1708 54.712 33.3622 55.7965 33.4897 56.8171C29.0881 57.3275 24.7503 58.5395 20.7315 60.4532C19.4556 61.1549 18.4988 62.8773 18.6263 64.2807C18.7539 65.8755 18.9453 67.4065 19.0729 69.0013C19.2005 70.3409 20.4125 71.7443 21.6883 71.9995C27.0468 72.8925 32.4691 73.3391 37.8913 73.3391V31.4919H38.0827Z" fill="#4B5678"/>
<path d="M51.7836 18C44.3926 18 38.3874 22.7394 38.3874 28.6405C38.3874 32.8689 41.5286 36.5396 46.0556 38.2588C45.9632 38.4447 45.8708 38.6306 45.7784 38.8164C44.9007 40.3033 43.6073 41.4649 42.0367 42.2084C45.455 42.4407 48.6424 41.4185 50.7211 39.2346C51.0907 39.2346 51.414 39.2811 51.7836 39.2811C59.1746 39.2811 65.1798 34.5416 65.1798 28.6405C65.1798 22.7859 59.1746 18 51.7836 18Z" fill="#FEC00F"/>
<path d="M61.055 36.4995C52.7146 36.3117 46.0424 30.8651 46.0424 24.1978C46.0424 22.1319 46.691 20.1598 47.8031 18.4695C49.0541 18.1409 50.3979 18 51.7416 18C59.1552 18 65.1788 22.7892 65.1788 28.7522C65.2251 31.7572 63.6034 34.5275 61.055 36.4995Z" fill="#F99B1C"/>
</svg>
