<svg width="93" height="92" viewBox="0 0 93 92" fill="none" xmlns="http://www.w3.org/2000/svg">
<path d="M25.6267 71.0391V43.6726V29.9574L35.4505 20.1335H62.8808V30.2764V43.6726V71.0391H25.6267Z" fill="#F1F4FA"/>
<path d="M35.4505 29.9574H25.6267L35.4505 20.1335V29.9574Z" fill="#EC8525"/>
<path d="M25.6267 29.9574H35.4505L25.6267 39.7813V29.9574Z" fill="#C1D0EF"/>
<path d="M58.1609 34.4473H32.6444V36.361H58.1609V34.4473Z" fill="#4B5678"/>
<path d="M58.1609 39.5507H32.6444V40.8265H58.1609V39.5507Z" fill="#C1D0EF"/>
<path d="M58.1609 44.016H32.6444V45.2918H58.1609V44.016Z" fill="#C1D0EF"/>
<path d="M50.5059 53.5847H32.6444V54.8605H50.5059V53.5847Z" fill="#4B5678"/>
<path d="M58.1609 58.0502H32.6444V59.9639H58.1609V58.0502Z" fill="#C1D0EF"/>
<path d="M58.1609 63.1534H32.6444V64.4293H58.1609V63.1534Z" fill="#C1D0EF"/>
<path d="M46.6784 53.4736C47.6991 55.4511 46.6784 58.7683 44.1268 61.7027L44.5095 62.0854L44.5733 62.0217L50.4421 56.1528C50.2508 55.8339 50.3146 55.4511 50.5697 55.196C50.8887 54.877 51.399 54.877 51.718 55.196C52.0369 55.5149 52.0369 56.0252 51.718 56.3442C51.4628 56.5994 51.08 56.6632 50.7611 56.4718L44.8923 62.3406L44.8285 62.4044L45.2112 62.7872C48.1456 60.2355 51.4628 59.2148 53.4403 60.2355C54.142 59.0873 54.9713 57.8752 55.9282 56.6632C56.885 55.4511 57.9057 54.4305 58.9264 53.5374C57.9695 52.8357 56.9488 51.9426 55.9282 50.9858C54.9713 50.0289 54.0782 49.0082 53.3765 47.9875C52.4834 49.0082 51.4628 49.9651 50.2508 50.9858C49.0387 52.0064 47.8267 52.8357 46.6784 53.4736Z" fill="#252D43"/>
<path d="M73.5346 38.0999C76.9156 34.719 72.195 29.9984 68.814 33.3794C62.9452 38.993 59.2454 42.4377 53.4403 48.0514C55.2265 49.8375 57.0764 51.6875 58.8626 53.4737C64.4125 47.6686 67.921 43.9688 73.5346 38.0999Z" fill="#EC8525"/>
<path d="M53.27 47.9717L52.458 48.7836L58.0964 54.4219L58.9083 53.61L53.27 47.9717Z" fill="#EC8525"/>
<path d="M67.4744 46.2014L79.9137 33.7621C81.2534 32.4225 81.1895 30.2536 79.8499 28.9139L78.1276 27.1916C76.788 25.852 74.5553 25.7882 73.2794 27.1278L60.8401 39.5671L67.4744 46.2014Z" fill="#FFB26A"/>
<path d="M79.9137 34.4L73.2794 27.7657C72.0674 26.5537 70.2174 26.4261 69.133 27.5106L61.9883 34.6552L60.7763 35.8672C61.797 36.4414 63.1366 36.3776 63.7107 35.8035C64.0297 35.4845 64.0935 35.1017 63.9659 34.719L70.1537 28.5312C70.7278 27.9571 71.7485 28.0209 72.3864 28.6588L79.0207 35.2931C79.2758 35.5483 79.7224 35.6121 79.9775 35.3569C80.2327 35.1655 80.2327 34.719 79.9137 34.4Z" fill="#EC8525"/>
</svg>
