<svg width="91" height="91" viewBox="0 0 91 91" fill="none" xmlns="http://www.w3.org/2000/svg">
<path d="M70.7295 46.0574C70.7295 60.6018 58.9281 72.4032 44.3837 72.4032C29.8392 72.4032 18.0378 60.6018 18.0378 46.0574C18.0378 31.5129 29.8392 19.7115 44.3837 19.7115C58.9281 19.7115 70.7295 31.5129 70.7295 46.0574Z" fill="#4B5678"/>
<path d="M63.84 46.0574C63.84 56.8381 55.1006 65.5776 44.3199 65.5776C33.5391 65.5776 24.7997 56.8381 24.7997 46.0574C24.7997 35.2766 33.5391 26.5372 44.3199 26.5372C55.1006 26.5372 63.84 35.2766 63.84 46.0574Z" fill="white"/>
<path d="M56.9506 46.0573C56.9506 53.0106 51.2731 58.688 44.3199 58.688C37.3666 58.688 31.6892 53.0106 31.6892 46.0573C31.6892 39.1041 37.3666 33.4266 44.3199 33.4266C51.2731 33.4266 56.9506 39.1041 56.9506 46.0573Z" fill="#252D43"/>
<path d="M50.1249 46.0574C50.1249 49.247 47.5733 51.7986 44.3837 51.7986C41.1941 51.7986 38.6425 49.247 38.6425 46.0574C38.6425 42.8678 41.1941 40.3162 44.3837 40.3162C47.5733 40.3162 50.1249 42.8678 50.1249 46.0574Z" fill="white"/>
<path d="M44.3199 19.7115V26.601C55.1006 26.601 63.84 35.3404 63.84 46.1212C63.84 56.9019 55.1006 65.6413 44.3199 65.6413V72.5308C58.8643 72.5308 70.6657 60.7294 70.6657 46.185C70.7295 31.5129 58.9281 19.7115 44.3199 19.7115Z" fill="#252D43"/>
<path d="M44.3199 40.3162C47.5095 40.3162 50.0611 42.8678 50.0611 46.0574C50.0611 49.247 47.5095 51.7986 44.3199 51.7986" fill="white"/>
<path d="M44.3199 33.4266V40.3161C47.5095 40.3161 50.0611 42.8678 50.0611 46.0573C50.0611 49.2469 47.5095 51.7985 44.3199 51.7985V58.688C51.2731 58.688 56.9506 53.0106 56.9506 46.0573C56.9506 39.1041 51.3369 33.4266 44.3199 33.4266Z" fill="#252D43"/>
<path d="M50.1249 46.0574C50.1249 42.8678 47.5732 40.3162 44.3837 40.3162V51.7986C47.5094 51.7986 50.1249 49.247 50.1249 46.0574Z" fill="#C1D0EF"/>
<path d="M44.3199 26.5372V33.4267C51.2731 33.4267 56.9506 39.1041 56.9506 46.0574C56.9506 53.0106 51.2731 58.6881 44.3199 58.6881V65.5776C55.1006 65.5776 63.84 56.8381 63.84 46.0574C63.84 35.2766 55.1006 26.5372 44.3199 26.5372Z" fill="#C1D0EF"/>
<path d="M68.1141 28.5148L72.2605 24.3683L67.6037 23.1563L66.3917 18.4995L62.2453 22.646L63.2659 26.4097L49.168 40.4438L47.1905 36.4887L45.8509 41.3369L44.5751 46.185L49.4232 44.8454L54.2713 43.5695L50.3163 41.592L64.3504 27.4941L68.1141 28.5148Z" fill="#EC8525"/>
<path d="M67.6037 23.1563L66.3917 18.4995L62.2453 22.646L63.2659 26.4097L49.168 40.4438L47.1905 36.4887L45.8509 41.3369L44.5751 46.185L67.6037 23.1563Z" fill="#FFB26A"/>
</svg>
