<svg width="12" height="6" viewBox="0 0 12 6" fill="none" xmlns="http://www.w3.org/2000/svg">
<path fill-rule="evenodd" clip-rule="evenodd" d="M0.219424 0.203253C0.359964 0.0784397 0.550551 0.00832337 0.749274 0.00832337C0.947997 0.00832337 1.13858 0.0784397 1.27912 0.203253L5.99532 4.39297L10.7115 0.203253C10.7806 0.139665 10.8633 0.0889443 10.9548 0.0540517C11.0462 0.0191592 11.1445 0.000793318 11.2441 2.51372e-05C11.3436 -0.000743043 11.4422 0.0161023 11.5343 0.049578C11.6265 0.0830537 11.7101 0.132489 11.7805 0.195001C11.8509 0.257512 11.9065 0.331847 11.9442 0.413668C11.9819 0.495489 12.0008 0.583157 12 0.671558C11.9991 0.759959 11.9784 0.847322 11.9392 0.928549C11.8999 1.00978 11.8428 1.08324 11.7712 1.14466L6.52517 5.80507C6.38463 5.92988 6.19404 6 5.99532 6C5.79659 6 5.606 5.92988 5.46547 5.80507L0.219424 1.14466C0.0789271 1.01981 0 0.850494 0 0.673955C0 0.497415 0.0789271 0.328104 0.219424 0.203253Z" fill="#252D43"/>
</svg>
