<svg width="12" height="10" viewBox="0 0 12 10" fill="none" xmlns="http://www.w3.org/2000/svg">
<path d="M3.575 6.7729L9.475 0.8729C9.65833 0.689567 9.89167 0.5979 10.175 0.5979C10.4583 0.5979 10.6917 0.689567 10.875 0.8729C11.0583 1.05623 11.15 1.28957 11.15 1.5729C11.15 1.85623 11.0583 2.08957 10.875 2.2729L4.275 8.8729C4.075 9.0729 3.84167 9.1729 3.575 9.1729C3.30833 9.1729 3.075 9.0729 2.875 8.8729L0.275 6.2729C0.0916663 6.08957 0 5.85623 0 5.5729C0 5.28957 0.0916663 5.05623 0.275 4.8729C0.458333 4.68957 0.691667 4.5979 0.975 4.5979C1.25833 4.5979 1.49167 4.68957 1.675 4.8729L3.575 6.7729Z" fill="white"/>
</svg>
